<?xml version="1.0" ?><svg id="Layer_1" style="enable-background:new 0 0 500 500;" version="1.1" viewBox="0 0 500 500" xml:space="preserve" xmlns="http://www.w3.org/2000/svg" xmlns:xlink="http://www.w3.org/1999/xlink"><style type="text/css">
	.st0{fill:#0f181d;}
</style><g><path class="st0" d="M377.773,210.384l46.025-46.025c25.966-25.966,57.899-99.984,32.684-125.198l-0.043-0.043   c-25.215-25.215-98.599,7.351-124.565,33.317l-45.371,45.371l-46.583,13.478c-13.64,3.997-27.432,5.231-40.866,3.797l-57.152-6.126   c-26.89-2.869-55.367,3.629-80.155,18.325c-6.972,4.134-11.732,11.279-12.72,19.128c-0.894,7.113,1.38,13.98,6.254,18.855   l75.518,75.518l-9.865,9.865c-8.578,8.578-8.68,22.501,0.496,31.677l26.466,26.466c3.561,3.561,7.915,5.806,12.412,6.728   c0.922,4.497,3.168,8.851,6.728,12.412l26.466,26.466c9.176,9.176,24.213,10.188,32.791,1.61l9.865-9.865l73.925,73.925   c4.875,4.875,11.75,7.158,18.864,6.263c7.849-0.987,15.002-5.739,19.136-12.711c14.695-24.788,21.209-53.248,18.341-80.138   l-6.094-57.119c-1.433-13.433-0.001-27.028,3.996-40.668L377.773,210.384z M370.624,71.869l0.142-0.141   c1.646-1.646,3.987-2.394,6.279-1.993c7.822,1.367,25.976,5.317,34.252,13.593c8.296,8.296,13.209,27.481,15.003,35.707   c0.519,2.378-0.215,4.853-1.936,6.575c-2.796,2.796-7.33,2.796-10.126,0c0,0-9.019-16.219-18.207-25.407   c-9.188-9.188-25.407-18.207-25.407-18.207C367.828,79.199,367.828,74.665,370.624,71.869z M69.426,171.12   c-0.617-0.617-0.646-1.55-0.561-2.225c0.171-1.363,1.067-3.242,3.067-4.429c21.103-12.511,45.187-18.072,67.817-15.657   l57.118,6.093c16.048,1.712,32.514,0.311,48.678-4.425l11.48-3.193l-66.973,66.973c-11.231,2.746-21.395,8.667-27.894,15.166   l-17.214,17.214L69.426,171.12z M166.191,315.9c-0.486,0.485-2.625,0.272-4.151-1.254l-26.466-26.466   c-1.525-1.525-0.981-2.907-0.496-3.392l41.222-41.222c8.967-8.967,32.212-14.986,39.155-8.043   c6.943,6.943,0.925,30.188-8.042,39.155L166.191,315.9z M212.153,361.862c-0.486,0.485-2.981-0.084-4.507-1.61l-26.466-26.466   c-1.526-1.526-1.333-3.258-0.847-3.744l41.222-41.222c8.967-8.967,32.565-14.633,39.509-7.689   c6.943,6.943,1.279,30.542-7.689,39.509L212.153,361.862z M345.135,250.066c-4.736,16.164-6.335,32.431-4.623,48.479l6.06,57.086   c2.414,22.63-3.163,46.698-15.673,67.801c-1.186,1.999-3.082,2.879-4.445,3.05c-0.674,0.085-1.608,0.057-2.226-0.561   l-73.925-73.925l17.214-17.214c6.561-6.561,11.863-17.52,14.655-28.797l66.124-66.124L345.135,250.066z"/><path class="st0" d="M43.022,366.908c1.895,0,3.811-0.538,5.509-1.661l54.982-36.376c4.606-3.047,5.87-9.251,2.822-13.857   c-3.047-4.606-9.251-5.868-13.857-2.822l-54.982,36.376c-4.606,3.047-5.87,9.251-2.822,13.857   C36.598,365.332,39.779,366.908,43.022,366.908z"/><path class="st0" d="M119.525,360.949c-3.635-4.158-9.951-4.583-14.11-0.947l-83.468,72.962c-4.158,3.635-4.583,9.952-0.948,14.11   c1.978,2.262,4.748,3.418,7.533,3.418c2.335,0,4.681-0.813,6.577-2.471l83.468-72.962   C122.735,371.425,123.16,365.107,119.525,360.949z"/><path class="st0" d="M189.402,401.079c-4.604-3.047-10.81-1.785-13.857,2.822l-36.088,54.546   c-3.048,4.606-1.784,10.81,2.822,13.857c1.698,1.124,3.613,1.661,5.509,1.661c3.243,0,6.425-1.576,8.349-4.483l36.088-54.546   C195.272,410.331,194.009,404.126,189.402,401.079z"/><path class="st0" d="M143.511,387.93c-4.136-3.66-10.457-3.274-14.115,0.863L56.433,471.26c-3.66,4.136-3.273,10.457,0.863,14.116   c1.902,1.684,4.267,2.511,6.622,2.511c2.765,0,5.518-1.14,7.493-3.374l72.963-82.467   C148.034,397.909,147.647,391.589,143.511,387.93z"/><path class="st0" d="M460.629,366.819l-12.3-3.595c-2.224-0.65-3.963-2.389-4.613-4.613l-3.595-12.3   c-1.904-6.515-11.133-6.515-13.037,0l-3.595,12.3c-0.65,2.224-2.389,3.963-4.613,4.613l-12.3,3.595   c-6.514,1.904-6.514,11.133,0,13.037l12.3,3.595c2.224,0.65,3.963,2.389,4.613,4.613l3.595,12.299   c1.904,6.515,11.133,6.515,13.037,0l3.595-12.299c0.65-2.224,2.389-3.963,4.613-4.613l12.3-3.595   C467.144,377.952,467.144,368.723,460.629,366.819z"/><circle class="st0" cx="454.153" cy="274.497" r="11.072"/><path class="st0" d="M152.286,62.856l12.299,3.595c2.224,0.65,3.963,2.389,4.613,4.613l3.595,12.3   c1.904,6.515,11.133,6.515,13.037,0l3.595-12.3c0.65-2.224,2.389-3.963,4.613-4.613l12.299-3.595   c6.515-1.904,6.515-11.133,0-13.037l-12.299-3.595c-2.224-0.65-3.963-2.389-4.613-4.613l-3.595-12.299   c-1.904-6.515-11.133-6.515-13.037,0l-3.595,12.299c-0.65,2.224-2.389,3.963-4.613,4.613l-12.299,3.595   C145.771,51.723,145.771,60.952,152.286,62.856z"/><circle class="st0" cx="82.762" cy="89.178" r="11.072"/></g></svg>